<svg width="300" height="300" viewBox="0 0 300 300" fill="none" xmlns="http://www.w3.org/2000/svg">
    
<style>
.rotate{
    animation:rotate 10s infinite linear;
    
    /*outline:1px solid #000;*/
    transform-origin: 150px 150px;   
}
   
@keyframes rotate{
    0%{
        rotate:0deg;
        
    }
    100%{
        rotate:360deg;
        
    }
}
</style>    
<g clip-path="url(#clip0_6_236)">
<path class="rotate" fill-rule="evenodd" clip-rule="evenodd" d="M150 300C232.843 300 300 232.843 300 150C300 67.1573 232.843 0 150 0C67.1572 0 0 67.1573 0 150C0 232.843 67.1572 300 150 300ZM150 277C220.14 277 277 220.14 277 150C277 79.8598 220.14 23 150 23C79.8599 23 23 79.8598 23 150C23 220.14 79.8599 277 150 277Z" fill="white"/>
<path class="rotate" fill-rule="evenodd" clip-rule="evenodd" d="M257.382 254.733C230.14 282.66 192.095 300 150 300C106.802 300 67.8689 281.74 40.4988 252.517C33.1243 237.499 29 220.713 29 203C29 198.851 29.2263 194.753 29.6676 190.717C46.6375 240.886 94.1013 277 150 277C205.066 277 251.947 241.954 269.554 192.949C269.849 196.262 270 199.614 270 203C270 221.59 265.457 239.159 257.382 254.733Z" fill="url(#paint0_linear_6_236)"/>
<path class="rotate" fill-rule="evenodd" clip-rule="evenodd" d="M251.876 39.9023C237.601 34.1673 221.935 31 205.5 31C202.133 31 198.797 31.133 195.5 31.3937C243.165 49.6907 277 95.8941 277 150C277 199.214 249.007 241.89 208.074 262.974C227.729 262.578 246.227 257.651 262.486 249.234C285.833 222.79 300 188.049 300 150C300 106.487 281.473 67.3018 251.876 39.9023Z" fill="url(#paint1_linear_6_236)"/>
<path class="rotate" fill-rule="evenodd" clip-rule="evenodd" d="M198.175 32.4558C183.319 26.3607 167.052 23 150 23C79.8599 23 23 79.8598 23 150C23 168.225 26.8389 185.553 33.7521 201.22C19.6285 190.218 8.14026 176.204 0.340942 160.194C0.114868 156.825 0 153.426 0 150C0 68.8654 64.4164 2.77606 144.896 0.0852051C165.576 6.19367 183.887 17.5146 198.175 32.4558Z" fill="url(#paint2_linear_6_236)"/>


<path fill-rule="evenodd" clip-rule="evenodd" d="M96 96H134.5C141 96 150.5 102.8 150.5 114C150.5 125.2 145.5 135 134.5 135H115V155.5C115 158 117.5 161.5 123.5 161.5H126V163.5H96V161.5C100 161 106 161.1 106 155.5V103.5C106 102 104 98 96 98L96 96ZM125.5 131.5C128.833 131.5 139 127.5 139 115C139 106 133.9 100.5 125.5 100.5H117C116.316 100.5 114.958 101.1 115 103.5V129.5C115 130.167 115.4 131.5 117 131.5H125.5Z" fill="#2E4C99"/>
<path d="M81 96H45V99C56.2 99 58.3333 104 58 106.5V163.5C58 178.3 45.3333 178.333 39 176.5L38 179.5C39.1667 180 45 182 53.5 181C63.0342 179.878 68 169 68 162V106.5C68 99.7 76.6667 98.6667 81 99V96Z" fill="#2E4C99"/>
<path d="M187 96H166.5V99C174.9 99 177 104.89 177 107.835L176 155C176 159.8 169.333 161 166 161V163H189V161C182.6 161 181 157 181 155V107.835L207 165H212L238 107.835V155C238 159.8 233 161 230.5 161V163H258V161C249.2 161 247 157 247 155V107.5C247 99.5 253.333 98.5 256.5 99V96H235.5L212 149.5L187 96Z" fill="#2E4C99"/>
<path d="M76.559 192.04V190.822H76.937C77.385 190.822 77.812 190.703 78.218 190.465C78.624 190.227 78.953 189.835 79.205 189.289C79.457 188.743 79.583 188.001 79.583 187.063V174.4C79.583 174.022 79.534 173.742 79.436 173.56C79.338 173.378 79.205 173.259 79.037 173.203C78.883 173.147 78.708 173.119 78.512 173.119H77.63V172.006H84.875V173.119H83.993C83.797 173.119 83.615 173.154 83.447 173.224C83.279 173.28 83.146 173.406 83.048 173.602C82.95 173.784 82.901 174.078 82.901 174.484V187.042C82.901 187.994 82.747 188.792 82.439 189.436C82.131 190.08 81.711 190.591 81.179 190.969C80.661 191.347 80.066 191.62 79.394 191.788C78.722 191.956 78.029 192.04 77.315 192.04H76.559ZM85.9347 187V185.887H86.8167C87.0267 185.887 87.2087 185.859 87.3627 185.803C87.5307 185.733 87.6567 185.6 87.7407 185.404C87.8387 185.208 87.8877 184.914 87.8877 184.522V174.4C87.8877 174.022 87.8387 173.742 87.7407 173.56C87.6427 173.378 87.5097 173.259 87.3417 173.203C87.1877 173.147 87.0127 173.119 86.8167 173.119H85.9347V172.006H92.3817C94.3277 172.006 95.7697 172.405 96.7077 173.203C97.6457 174.001 98.1147 175.086 98.1147 176.458C98.1147 177.088 98.0027 177.69 97.7787 178.264C97.5547 178.838 97.1977 179.356 96.7077 179.818C96.2317 180.266 95.5947 180.623 94.7967 180.889C94.0127 181.141 93.0537 181.267 91.9197 181.267H91.2057V184.627C91.2057 184.991 91.2547 185.264 91.3527 185.446C91.4647 185.628 91.6047 185.747 91.7727 185.803C91.9407 185.859 92.1227 185.887 92.3187 185.887H93.5997V187H85.9347ZM91.7097 180.049C92.2277 180.049 92.6687 179.986 93.0327 179.86C93.3967 179.72 93.6907 179.517 93.9147 179.251C94.1527 178.971 94.3207 178.607 94.4187 178.159C94.5307 177.711 94.5867 177.172 94.5867 176.542C94.5867 175.786 94.5027 175.17 94.3347 174.694C94.1667 174.204 93.8937 173.84 93.5157 173.602C93.1517 173.364 92.6547 173.245 92.0247 173.245H91.2057V180.049H91.7097ZM104.781 187V185.887H105.663C105.859 185.887 106.034 185.859 106.188 185.803C106.356 185.747 106.489 185.628 106.587 185.446C106.685 185.264 106.734 184.991 106.734 184.627V174.4C106.734 174.022 106.685 173.742 106.587 173.56C106.489 173.378 106.356 173.259 106.188 173.203C106.034 173.147 105.859 173.119 105.663 173.119H104.781V172.006H110.829L114.315 182.149L117.654 172.006H123.597V173.119H122.715C122.519 173.119 122.337 173.154 122.169 173.224C122.001 173.28 121.868 173.406 121.77 173.602C121.686 173.784 121.644 174.078 121.644 174.484V184.522C121.644 184.914 121.686 185.208 121.77 185.404C121.868 185.6 122.001 185.733 122.169 185.803C122.337 185.859 122.519 185.887 122.715 185.887H123.597V187H116.877V185.887H117.087C117.381 185.887 117.626 185.859 117.822 185.803C118.018 185.747 118.165 185.635 118.263 185.467C118.361 185.299 118.41 185.047 118.41 184.711V174.085L114.168 187H112.74L108.309 174.085V184.522C108.309 184.914 108.365 185.208 108.477 185.404C108.603 185.6 108.785 185.733 109.023 185.803C109.261 185.859 109.541 185.887 109.863 185.887H109.989V187H104.781ZM124.776 187V185.887H125.658C125.868 185.887 126.05 185.859 126.204 185.803C126.372 185.733 126.498 185.6 126.582 185.404C126.68 185.208 126.729 184.914 126.729 184.522V174.484C126.729 174.078 126.68 173.784 126.582 173.602C126.498 173.406 126.372 173.28 126.204 173.224C126.05 173.154 125.868 173.119 125.658 173.119H124.776V172.006H132.021V173.119H131.139C130.943 173.119 130.761 173.154 130.593 173.224C130.425 173.28 130.292 173.406 130.194 173.602C130.11 173.784 130.068 174.078 130.068 174.484V184.522C130.068 184.914 130.11 185.208 130.194 185.404C130.292 185.6 130.425 185.733 130.593 185.803C130.761 185.859 130.943 185.887 131.139 185.887H132.021V187H124.776ZM133.205 187V185.887H134.087C134.283 185.887 134.458 185.859 134.612 185.803C134.78 185.733 134.913 185.6 135.011 185.404C135.109 185.208 135.158 184.914 135.158 184.522V174.4C135.158 174.022 135.109 173.742 135.011 173.56C134.913 173.378 134.78 173.259 134.612 173.203C134.458 173.147 134.283 173.119 134.087 173.119H133.205V172.006H137.867L145.28 182.485V174.4C145.28 174.022 145.231 173.742 145.133 173.56C145.035 173.378 144.902 173.259 144.734 173.203C144.58 173.147 144.405 173.119 144.209 173.119H143.327V172.006H148.808V173.119H147.926C147.73 173.119 147.548 173.154 147.38 173.224C147.226 173.28 147.1 173.406 147.002 173.602C146.904 173.784 146.855 174.078 146.855 174.484V187H144.923L136.733 175.429V184.522C136.733 184.914 136.782 185.208 136.88 185.404C136.978 185.6 137.104 185.733 137.258 185.803C137.426 185.859 137.608 185.887 137.804 185.887H138.686V187H133.205ZM149.755 187V185.887H150.637C150.847 185.887 151.029 185.859 151.183 185.803C151.351 185.733 151.477 185.6 151.561 185.404C151.659 185.208 151.708 184.914 151.708 184.522V174.4C151.708 174.022 151.659 173.742 151.561 173.56C151.463 173.378 151.33 173.259 151.162 173.203C151.008 173.147 150.833 173.119 150.637 173.119H149.755V172.006H156.685C158.239 172.006 159.569 172.279 160.675 172.825C161.781 173.357 162.628 174.162 163.216 175.24C163.818 176.304 164.119 177.634 164.119 179.23C164.119 180.756 163.839 182.107 163.279 183.283C162.719 184.445 161.886 185.355 160.78 186.013C159.688 186.671 158.323 187 156.685 187H149.755ZM156.202 185.698C157.168 185.698 157.973 185.439 158.617 184.921C159.261 184.403 159.744 183.661 160.066 182.695C160.402 181.715 160.57 180.553 160.57 179.209C160.57 177.879 160.402 176.78 160.066 175.912C159.744 175.03 159.261 174.372 158.617 173.938C157.973 173.504 157.175 173.287 156.223 173.287H155.026V185.698H156.202ZM164.939 187V185.887H165.191C165.443 185.887 165.667 185.845 165.863 185.761C166.059 185.677 166.234 185.53 166.388 185.32C166.556 185.096 166.717 184.774 166.871 184.354L171.428 172.006H174.305L178.694 184.375C178.834 184.767 178.981 185.075 179.135 185.299C179.303 185.509 179.478 185.663 179.66 185.761C179.856 185.845 180.066 185.887 180.29 185.887H180.668V187H173.738V185.887H174.557C174.767 185.887 174.97 185.824 175.166 185.698C175.362 185.572 175.46 185.362 175.46 185.068C175.46 184.956 175.446 184.844 175.418 184.732C175.404 184.62 175.383 184.515 175.355 184.417C175.327 184.319 175.299 184.235 175.271 184.165L174.536 182.065H169.433L168.824 183.871C168.796 183.983 168.761 184.109 168.719 184.249C168.677 184.389 168.642 184.536 168.614 184.69C168.586 184.83 168.572 184.956 168.572 185.068C168.572 185.334 168.67 185.537 168.866 185.677C169.062 185.817 169.279 185.887 169.517 185.887H170.399V187H164.939ZM169.874 180.784H174.116L173.003 177.34C172.905 177.018 172.8 176.675 172.688 176.311C172.576 175.933 172.471 175.555 172.373 175.177C172.275 174.799 172.184 174.449 172.1 174.127C172.044 174.351 171.974 174.596 171.89 174.862C171.806 175.114 171.722 175.38 171.638 175.66C171.554 175.926 171.463 176.199 171.365 176.479C171.281 176.745 171.197 176.997 171.113 177.235L169.874 180.784ZM195.005 187.21C193.269 187.21 191.827 186.888 190.679 186.244C189.545 185.6 188.691 184.704 188.117 183.556C187.557 182.394 187.277 181.036 187.277 179.482C187.277 177.97 187.571 176.64 188.159 175.492C188.747 174.33 189.622 173.427 190.784 172.783C191.96 172.125 193.402 171.796 195.11 171.796C196.272 171.796 197.238 171.908 198.008 172.132C198.792 172.342 199.38 172.629 199.772 172.993C200.164 173.357 200.36 173.77 200.36 174.232C200.36 174.722 200.129 175.142 199.667 175.492C199.205 175.842 198.533 176.017 197.651 176.017C197.651 175.443 197.553 174.946 197.357 174.526C197.175 174.092 196.895 173.756 196.517 173.518C196.139 173.266 195.649 173.14 195.047 173.14C194.025 173.14 193.199 173.392 192.569 173.896C191.953 174.386 191.505 175.1 191.225 176.038C190.945 176.976 190.805 178.124 190.805 179.482C190.805 180.826 190.952 181.967 191.246 182.905C191.54 183.843 192.016 184.557 192.674 185.047C193.346 185.537 194.228 185.782 195.32 185.782C195.586 185.782 195.845 185.775 196.097 185.761C196.363 185.733 196.615 185.691 196.853 185.635V182.548C196.853 182.17 196.797 181.876 196.685 181.666C196.573 181.442 196.405 181.288 196.181 181.204C195.971 181.106 195.698 181.057 195.362 181.057H195.089V179.944H201.683V181.057H201.41C201.13 181.057 200.892 181.106 200.696 181.204C200.514 181.302 200.381 181.463 200.297 181.687C200.213 181.911 200.171 182.226 200.171 182.632V186.076C199.359 186.454 198.533 186.741 197.693 186.937C196.853 187.119 195.957 187.21 195.005 187.21ZM202.85 187V185.887H203.732C203.928 185.887 204.103 185.859 204.257 185.803C204.425 185.747 204.558 185.628 204.656 185.446C204.754 185.264 204.803 184.991 204.803 184.627V174.4C204.803 174.022 204.754 173.742 204.656 173.56C204.558 173.378 204.425 173.259 204.257 173.203C204.103 173.147 203.928 173.119 203.732 173.119H202.85V172.006H209.612C210.942 172.006 212.027 172.153 212.867 172.447C213.721 172.741 214.351 173.182 214.757 173.77C215.163 174.344 215.366 175.051 215.366 175.891C215.366 176.633 215.226 177.263 214.946 177.781C214.666 178.299 214.309 178.726 213.875 179.062C213.441 179.398 212.986 179.664 212.51 179.86L215.009 184.165C215.191 184.473 215.366 184.739 215.534 184.963C215.702 185.173 215.863 185.348 216.017 185.488C216.185 185.628 216.36 185.733 216.542 185.803C216.724 185.859 216.913 185.887 217.109 185.887H217.193V187H216.5C215.87 187 215.317 186.979 214.841 186.937C214.379 186.881 213.973 186.79 213.623 186.664C213.287 186.524 212.986 186.328 212.72 186.076C212.454 185.824 212.216 185.502 212.006 185.11L209.507 180.49H208.121V184.627C208.121 184.991 208.17 185.264 208.268 185.446C208.366 185.628 208.499 185.747 208.667 185.803C208.835 185.859 209.01 185.887 209.192 185.887H210.095V187H202.85ZM209.297 179.272C209.941 179.272 210.445 179.16 210.809 178.936C211.187 178.698 211.453 178.355 211.607 177.907C211.761 177.445 211.838 176.871 211.838 176.185C211.838 175.471 211.754 174.904 211.586 174.484C211.418 174.05 211.145 173.735 210.767 173.539C210.389 173.343 209.885 173.245 209.255 173.245H208.121V179.272H209.297ZM224.973 187.21C223.377 187.21 222.054 186.888 221.004 186.244C219.954 185.6 219.163 184.697 218.631 183.535C218.113 182.373 217.854 181.015 217.854 179.461C217.854 177.907 218.113 176.556 218.631 175.408C219.163 174.26 219.954 173.371 221.004 172.741C222.068 172.097 223.398 171.775 224.994 171.775C226.506 171.775 227.787 172.097 228.837 172.741C229.901 173.371 230.706 174.267 231.252 175.429C231.798 176.577 232.071 177.928 232.071 179.482C232.071 181.036 231.791 182.394 231.231 183.556C230.685 184.704 229.887 185.6 228.837 186.244C227.787 186.888 226.499 187.21 224.973 187.21ZM224.973 185.845C225.631 185.845 226.184 185.705 226.632 185.425C227.094 185.131 227.465 184.711 227.745 184.165C228.025 183.619 228.228 182.954 228.354 182.17C228.48 181.386 228.543 180.49 228.543 179.482C228.543 178.474 228.48 177.578 228.354 176.794C228.228 176.01 228.025 175.345 227.745 174.799C227.465 174.253 227.101 173.84 226.653 173.56C226.205 173.28 225.652 173.14 224.994 173.14C224.336 173.14 223.776 173.28 223.314 173.56C222.852 173.84 222.481 174.253 222.201 174.799C221.921 175.345 221.711 176.01 221.571 176.794C221.445 177.578 221.382 178.474 221.382 179.482C221.382 180.49 221.445 181.386 221.571 182.17C221.711 182.954 221.921 183.619 222.201 184.165C222.481 184.711 222.852 185.131 223.314 185.425C223.776 185.705 224.329 185.845 224.973 185.845ZM241.356 187.21C240.138 187.21 239.095 187.049 238.227 186.727C237.359 186.405 236.694 185.894 236.232 185.194C235.77 184.494 235.539 183.57 235.539 182.422V174.4C235.539 174.022 235.49 173.742 235.392 173.56C235.294 173.378 235.161 173.259 234.993 173.203C234.839 173.147 234.664 173.119 234.468 173.119H233.565V172.006H240.81V173.119H239.928C239.732 173.119 239.55 173.154 239.382 173.224C239.228 173.28 239.102 173.406 239.004 173.602C238.906 173.784 238.857 174.078 238.857 174.484V182.59C238.857 183.374 238.983 183.997 239.235 184.459C239.501 184.907 239.865 185.229 240.327 185.425C240.803 185.621 241.356 185.719 241.986 185.719C242.616 185.719 243.155 185.614 243.603 185.404C244.065 185.18 244.415 184.844 244.653 184.396C244.905 183.934 245.031 183.346 245.031 182.632V174.4C245.031 174.022 244.982 173.742 244.884 173.56C244.786 173.378 244.653 173.259 244.485 173.203C244.331 173.147 244.156 173.119 243.96 173.119H243.078V172.006H248.58V173.119H247.677C247.481 173.119 247.299 173.154 247.131 173.224C246.977 173.28 246.851 173.406 246.753 173.602C246.655 173.784 246.606 174.078 246.606 174.484V182.674C246.606 183.612 246.424 184.424 246.06 185.11C245.696 185.782 245.129 186.3 244.359 186.664C243.589 187.028 242.588 187.21 241.356 187.21ZM249.505 187V185.887H250.387C250.597 185.887 250.779 185.859 250.933 185.803C251.101 185.733 251.227 185.6 251.311 185.404C251.409 185.208 251.458 184.914 251.458 184.522V174.4C251.458 174.022 251.409 173.742 251.311 173.56C251.213 173.378 251.08 173.259 250.912 173.203C250.758 173.147 250.583 173.119 250.387 173.119H249.505V172.006H255.952C257.898 172.006 259.34 172.405 260.278 173.203C261.216 174.001 261.685 175.086 261.685 176.458C261.685 177.088 261.573 177.69 261.349 178.264C261.125 178.838 260.768 179.356 260.278 179.818C259.802 180.266 259.165 180.623 258.367 180.889C257.583 181.141 256.624 181.267 255.49 181.267H254.776V184.627C254.776 184.991 254.825 185.264 254.923 185.446C255.035 185.628 255.175 185.747 255.343 185.803C255.511 185.859 255.693 185.887 255.889 185.887H257.17V187H249.505ZM255.28 180.049C255.798 180.049 256.239 179.986 256.603 179.86C256.967 179.72 257.261 179.517 257.485 179.251C257.723 178.971 257.891 178.607 257.989 178.159C258.101 177.711 258.157 177.172 258.157 176.542C258.157 175.786 258.073 175.17 257.905 174.694C257.737 174.204 257.464 173.84 257.086 173.602C256.722 173.364 256.225 173.245 255.595 173.245H254.776V180.049H255.28Z" fill="#2E4C99"/>
<path d="M95.8885 249.253C95.2062 249.253 94.5162 249.188 93.8185 249.058C93.1285 248.935 92.4883 248.781 91.898 248.597C91.3153 248.406 90.8438 248.214 90.4835 248.022L90.679 246.056C91.1927 246.34 91.7255 246.589 92.2775 246.803C92.8372 247.01 93.4045 247.171 93.9795 247.286C94.5622 247.401 95.1563 247.459 95.762 247.459C96.4443 247.459 97.0577 247.367 97.602 247.183C98.154 246.991 98.5872 246.692 98.9015 246.286C99.2235 245.872 99.3845 245.331 99.3845 244.664C99.3845 244.082 99.2197 243.603 98.89 243.227C98.5603 242.844 98.0812 242.514 97.4525 242.238C96.8315 241.962 96.0763 241.686 95.187 241.41C94.1443 241.08 93.255 240.724 92.519 240.34C91.783 239.957 91.2195 239.486 90.8285 238.926C90.4452 238.359 90.2535 237.638 90.2535 236.764C90.2535 235.913 90.4528 235.15 90.8515 234.475C91.2578 233.801 91.8597 233.272 92.657 232.888C93.4543 232.497 94.4433 232.302 95.624 232.302C96.1147 232.302 96.5977 232.336 97.073 232.405C97.556 232.474 98.016 232.57 98.453 232.693C98.89 232.808 99.2887 232.938 99.649 233.084C100.009 233.23 100.316 233.379 100.569 233.532L100.362 235.51C99.8943 235.196 99.3998 234.935 98.8785 234.728C98.3572 234.514 97.8397 234.357 97.326 234.257C96.8123 234.15 96.337 234.096 95.9 234.096C95.279 234.096 94.7078 234.188 94.1865 234.372C93.6652 234.556 93.2435 234.84 92.9215 235.223C92.6072 235.599 92.45 236.085 92.45 236.683C92.45 237.205 92.5842 237.638 92.8525 237.983C93.1208 238.328 93.5425 238.638 94.1175 238.914C94.7002 239.183 95.4477 239.463 96.36 239.754C97.6787 240.168 98.7137 240.59 99.465 241.019C100.224 241.441 100.761 241.931 101.075 242.491C101.397 243.051 101.558 243.737 101.558 244.549C101.558 245.446 101.359 246.248 100.96 246.953C100.569 247.658 99.9557 248.218 99.12 248.632C98.2843 249.046 97.2072 249.253 95.8885 249.253ZM104.661 249C104.661 248.088 104.661 247.21 104.661 246.366C104.661 245.523 104.661 244.595 104.661 243.583V238.086C104.661 237.051 104.661 236.108 104.661 235.257C104.661 234.399 104.661 233.513 104.661 232.601H106.777C106.777 233.513 106.777 234.399 106.777 235.257C106.777 236.108 106.777 237.051 106.777 238.086V243.583C106.777 244.595 106.777 245.523 106.777 246.366C106.777 247.21 106.777 248.088 106.777 249H104.661ZM111.05 249C111.05 248.088 111.05 247.21 111.05 246.366C111.05 245.523 111.05 244.595 111.05 243.583V238.086C111.05 237.051 111.05 236.108 111.05 235.257C111.05 234.399 111.05 233.513 111.05 232.601H112.925C113.906 233.981 114.849 235.311 115.754 236.592C116.659 237.872 117.552 239.133 118.433 240.375L121.987 245.389H122.159V238.086C122.159 237.051 122.159 236.108 122.159 235.257C122.159 234.399 122.159 233.513 122.159 232.601H124.137C124.137 233.513 124.137 234.399 124.137 235.257C124.137 236.108 124.137 237.051 124.137 238.086V243.583C124.137 244.595 124.137 245.523 124.137 246.366C124.137 247.21 124.137 248.088 124.137 249H122.286C121.473 247.85 120.618 246.642 119.721 245.377C118.824 244.105 117.839 242.709 116.766 241.191L113.189 236.143H113.028V243.583C113.028 244.595 113.028 245.523 113.028 246.366C113.028 247.21 113.028 248.088 113.028 249H111.05ZM135.819 249.253C134.524 249.253 133.354 249.042 132.312 248.621C131.277 248.199 130.395 247.608 129.667 246.849C128.938 246.083 128.379 245.186 127.988 244.158C127.604 243.123 127.413 241.996 127.413 240.777C127.413 239.121 127.754 237.657 128.436 236.384C129.119 235.104 130.065 234.104 131.277 233.383C132.488 232.662 133.899 232.302 135.509 232.302C136.053 232.302 136.582 232.34 137.096 232.417C137.609 232.494 138.096 232.597 138.556 232.727C139.016 232.858 139.442 233 139.833 233.153C140.224 233.306 140.561 233.463 140.845 233.624L140.661 235.625C140.063 235.273 139.48 234.989 138.913 234.774C138.353 234.552 137.801 234.391 137.257 234.291C136.72 234.192 136.195 234.142 135.681 234.142C134.501 234.142 133.45 234.41 132.53 234.947C131.61 235.484 130.886 236.25 130.357 237.247C129.835 238.236 129.575 239.417 129.575 240.789C129.575 241.701 129.709 242.56 129.977 243.365C130.253 244.17 130.66 244.879 131.196 245.492C131.741 246.106 132.411 246.589 133.209 246.941C134.014 247.286 134.949 247.459 136.015 247.459C136.406 247.459 136.797 247.436 137.188 247.39C137.579 247.336 137.966 247.256 138.349 247.148C138.733 247.041 139.108 246.899 139.476 246.723C139.852 246.539 140.22 246.324 140.58 246.079L140.741 248.057C140.419 248.264 140.063 248.444 139.672 248.597C139.288 248.751 138.882 248.877 138.453 248.977C138.031 249.069 137.598 249.138 137.153 249.184C136.709 249.23 136.264 249.253 135.819 249.253ZM144.135 249C144.135 248.088 144.135 247.21 144.135 246.366C144.135 245.523 144.135 244.595 144.135 243.583V238.075C144.135 237.055 144.135 236.116 144.135 235.257C144.135 234.399 144.135 233.513 144.135 232.601H154.324V234.383C153.558 234.383 152.733 234.383 151.852 234.383C150.978 234.383 149.943 234.383 148.747 234.383H145.021L146.171 232.9C146.171 233.82 146.171 234.709 146.171 235.568C146.171 236.419 146.171 237.354 146.171 238.374V243.273C146.171 244.277 146.171 245.205 146.171 246.056C146.171 246.899 146.171 247.777 146.171 248.689L145.136 247.217H148.931C149.935 247.217 150.882 247.217 151.771 247.217C152.668 247.217 153.527 247.217 154.347 247.217V249H144.135ZM145.722 241.559V239.823H148.908C149.966 239.823 150.878 239.823 151.645 239.823C152.411 239.823 153.151 239.823 153.864 239.823V241.559C153.113 241.559 152.354 241.559 151.587 241.559C150.828 241.559 149.931 241.559 148.896 241.559H145.722ZM161.274 237.776L160.802 236.177C161.745 235.671 162.688 235.169 163.631 234.671C164.582 234.173 165.533 233.67 166.483 233.164L166.426 234.993C165.567 235.461 164.709 235.924 163.85 236.384C162.999 236.844 162.14 237.308 161.274 237.776ZM165.494 249C165.494 248.149 165.494 247.332 165.494 246.55C165.494 245.768 165.494 244.906 165.494 243.963V239.018C165.494 238.198 165.494 237.377 165.494 236.557C165.494 235.737 165.494 234.912 165.494 234.084L166.483 233.164L167.438 233.233C167.438 234.092 167.438 234.978 167.438 235.89C167.438 236.802 167.438 237.741 167.438 238.707V243.963C167.438 244.906 167.438 245.768 167.438 246.55C167.438 247.332 167.438 248.149 167.438 249H165.494ZM176.344 249.253C175.938 249.253 175.539 249.222 175.148 249.161C174.757 249.107 174.378 249.031 174.01 248.931C173.642 248.831 173.289 248.712 172.952 248.574C172.614 248.436 172.296 248.287 171.997 248.126L172.227 246.286C172.542 246.493 172.864 246.673 173.193 246.826C173.523 246.98 173.856 247.106 174.194 247.206C174.539 247.306 174.884 247.382 175.229 247.436C175.574 247.482 175.907 247.505 176.229 247.505C177.272 247.505 178.119 247.248 178.771 246.734C179.422 246.213 179.898 245.446 180.197 244.434C180.503 243.422 180.657 242.173 180.657 240.685C180.657 239.344 180.5 238.228 180.185 237.339C179.879 236.442 179.426 235.771 178.828 235.326C178.23 234.882 177.498 234.659 176.632 234.659C175.788 234.659 175.102 234.836 174.573 235.188C174.044 235.533 173.653 235.99 173.4 236.557C173.155 237.117 173.032 237.711 173.032 238.339C173.032 238.968 173.155 239.539 173.4 240.053C173.646 240.567 174.025 240.977 174.539 241.283C175.052 241.59 175.716 241.743 176.528 241.743C176.858 241.743 177.191 241.713 177.529 241.651C177.874 241.59 178.223 241.487 178.575 241.341C178.936 241.188 179.296 240.984 179.656 240.731C180.017 240.471 180.377 240.141 180.737 239.742C180.868 239.988 180.952 240.206 180.99 240.398C181.036 240.582 181.036 240.77 180.99 240.961C180.952 241.145 180.871 241.356 180.749 241.594L180.427 241.571C180.12 241.862 179.798 242.123 179.461 242.353C179.131 242.583 178.782 242.775 178.414 242.928C178.054 243.081 177.674 243.196 177.276 243.273C176.877 243.35 176.463 243.388 176.034 243.388C175.022 243.388 174.144 243.181 173.4 242.767C172.657 242.345 172.082 241.763 171.675 241.019C171.277 240.275 171.077 239.417 171.077 238.443C171.077 237.492 171.28 236.599 171.687 235.763C172.093 234.92 172.699 234.238 173.504 233.716C174.316 233.195 175.336 232.934 176.563 232.934C177.858 232.934 178.951 233.233 179.84 233.831C180.737 234.422 181.42 235.3 181.887 236.465C182.355 237.623 182.589 239.045 182.589 240.731C182.589 242.127 182.447 243.357 182.163 244.423C181.887 245.481 181.481 246.366 180.944 247.079C180.415 247.792 179.764 248.333 178.989 248.701C178.215 249.069 177.333 249.253 176.344 249.253ZM190.177 249.253C189.686 249.253 189.2 249.219 188.717 249.15C188.234 249.088 187.762 249 187.302 248.885C186.85 248.762 186.42 248.624 186.014 248.471C185.608 248.318 185.236 248.153 184.899 247.976L185.094 246.113C185.508 246.343 185.926 246.547 186.348 246.723C186.777 246.899 187.199 247.049 187.613 247.171C188.034 247.286 188.444 247.375 188.843 247.436C189.249 247.497 189.64 247.528 190.016 247.528C191.335 247.528 192.312 247.214 192.949 246.585C193.593 245.949 193.915 245.063 193.915 243.928C193.915 243.093 193.75 242.426 193.42 241.927C193.09 241.421 192.642 241.057 192.075 240.835C191.515 240.605 190.89 240.49 190.2 240.49C189.602 240.49 189.031 240.563 188.487 240.708C187.942 240.854 187.363 241.138 186.75 241.559L185.876 241.479V239.018C185.876 237.983 185.876 236.982 185.876 236.016C185.876 235.043 185.876 234.111 185.876 233.222H194.973V234.947C194.053 234.947 193.125 234.947 192.19 234.947C191.262 234.947 190.338 234.947 189.418 234.947H187.084L187.774 234.28C187.774 234.993 187.77 235.706 187.762 236.419C187.762 237.124 187.758 237.83 187.751 238.535V239.593H187.946C188.383 239.355 188.855 239.171 189.361 239.041C189.874 238.903 190.411 238.834 190.971 238.834C191.875 238.834 192.699 239.018 193.443 239.386C194.194 239.746 194.792 240.298 195.237 241.042C195.689 241.786 195.916 242.725 195.916 243.859C195.916 244.933 195.697 245.876 195.26 246.688C194.831 247.493 194.187 248.122 193.328 248.574C192.477 249.027 191.427 249.253 190.177 249.253ZM204.385 249.253C203.089 249.253 201.993 248.954 201.096 248.356C200.199 247.758 199.516 246.88 199.049 245.722C198.589 244.565 198.359 243.139 198.359 241.444C198.359 240.057 198.497 238.834 198.773 237.776C199.049 236.71 199.455 235.821 199.992 235.108C200.528 234.387 201.18 233.847 201.947 233.486C202.721 233.118 203.606 232.934 204.603 232.934C205.009 232.934 205.408 232.961 205.799 233.015C206.19 233.069 206.566 233.145 206.926 233.245C207.294 233.345 207.647 233.463 207.984 233.601C208.321 233.732 208.64 233.881 208.939 234.05L208.709 235.89C208.402 235.683 208.08 235.503 207.743 235.349C207.413 235.196 207.076 235.07 206.731 234.97C206.393 234.87 206.052 234.797 205.707 234.751C205.37 234.698 205.036 234.671 204.707 234.671C203.672 234.671 202.828 234.932 202.177 235.453C201.525 235.967 201.046 236.729 200.739 237.741C200.432 238.753 200.279 240.003 200.279 241.49C200.279 242.832 200.432 243.951 200.739 244.848C201.053 245.738 201.51 246.409 202.108 246.861C202.706 247.306 203.442 247.528 204.316 247.528C205.151 247.528 205.834 247.352 206.363 246.999C206.892 246.646 207.283 246.19 207.536 245.63C207.789 245.063 207.915 244.465 207.915 243.836C207.915 243.208 207.792 242.637 207.547 242.123C207.302 241.609 206.918 241.199 206.397 240.892C205.883 240.586 205.22 240.432 204.408 240.432C204.078 240.432 203.741 240.463 203.396 240.524C203.058 240.586 202.713 240.693 202.361 240.846C202.008 240.992 201.651 241.195 201.291 241.456C200.931 241.709 200.567 242.035 200.199 242.433C200.068 242.188 199.984 241.973 199.946 241.789C199.907 241.598 199.907 241.41 199.946 241.226C199.984 241.042 200.064 240.827 200.187 240.582L200.521 240.605C200.82 240.306 201.134 240.045 201.464 239.823C201.801 239.593 202.15 239.401 202.51 239.248C202.878 239.095 203.261 238.98 203.66 238.903C204.059 238.826 204.473 238.788 204.902 238.788C205.922 238.788 206.8 238.999 207.536 239.42C208.279 239.834 208.85 240.413 209.249 241.157C209.655 241.901 209.859 242.759 209.859 243.733C209.859 244.684 209.655 245.581 209.249 246.424C208.85 247.26 208.245 247.942 207.432 248.471C206.619 248.992 205.604 249.253 204.385 249.253Z" fill="#2E4C99"/>
</g>
<defs>
<linearGradient id="paint0_linear_6_236" x1="46" y1="235.5" x2="218.5" y2="284.5" gradientUnits="userSpaceOnUse">
<stop stop-color="white"/>
<stop offset="1" stop-color="#2E4C99"/>
</linearGradient>
<linearGradient id="paint1_linear_6_236" x1="247.75" y1="31" x2="247.75" y2="262.974" gradientUnits="userSpaceOnUse">
<stop stop-color="#2E4C99"/>
<stop offset="0.67" stop-color="white"/>
</linearGradient>
<linearGradient id="paint2_linear_6_236" x1="28.5" y1="192" x2="146.5" y2="4.73712e-06" gradientUnits="userSpaceOnUse">
<stop stop-color="#2E4C99"/>
<stop offset="1" stop-color="white"/>
</linearGradient>
<clipPath id="clip0_6_236">
<rect width="300" height="300" fill="white"/>
</clipPath>
</defs>
</svg>
