<svg xmlns="http://www.w3.org/2000/svg" width="900" height="620" viewBox="0 0 900 620" fill="none">
    <style>text{font-family:ui-monospace,Consolas,monospace;font-size:24px;fill:#465366} .s{stroke:#465366;stroke-width:1.2} .g{stroke:#94A0B2;stroke-width:1}</style>
    <rect x="140" y="120" width="620" height="330" rx="18" class="s"/>
    <circle cx="178" cy="158" r="14" class="s"/><circle cx="722" cy="158" r="14" class="s"/>
    <circle cx="178" cy="412" r="14" class="s"/><circle cx="722" cy="412" r="14" class="s"/>
    <rect x="190" y="178" width="170" height="50" rx="5" class="g"/>
    <rect x="570" y="365" width="140" height="48" rx="5" class="g"/>
    <path d="M 140 506 h620" class="s"/><path d="M 140 492 v28 M 760 492 v28" class="s"/>
    <path d="M 432 506 l-16 -8 v16 z M 468 506 l16 -8 v16 z" fill="#465366"/>
    <text x="392" y="548">146 mm</text>
    <path d="M 84 120 v330" class="s"/><path d="M 70 120 h28 M 70 450 h28" class="s"/>
    <path d="M 84 267 l-8 -16 h16 z M 84 303 l-8 16 h16 z" fill="#465366"/>
    <text x="10" y="295" transform="rotate(-90 10 295)">92 mm</text>
    <text x="64" y="72">WBMS-SW 24S / ORTHOGRAPHIC OUTLINE</text>
  </svg>